<svg xmlns="http://www.w3.org/2000/svg" viewBox="0 0 860 420" width="860" height="420" style="background:#0D1117; font-family: 'Courier New', monospace;">

  <!-- Background -->
  <rect width="860" height="420" fill="#0D1117"/>
  
  <!-- Title -->
  <text x="430" y="32" fill="#E6EDF3" font-size="14" font-weight="bold" text-anchor="middle">PV + BESS System Simulator — 24h Energy Balance</text>
  <text x="430" y="50" fill="#8B949E" font-size="11" text-anchor="middle">10 kWh LiFePO4 BESS · 400W PV String · Ingolstadt Weather Profile</text>

  <!-- Chart area -->
  <!-- Grid lines -->
  <line x1="70" y1="70" x2="810" y2="70" stroke="#21262D" stroke-width="1"/>
  <line x1="70" y1="115" x2="810" y2="115" stroke="#21262D" stroke-width="1"/>
  <line x1="70" y1="160" x2="810" y2="160" stroke="#21262D" stroke-width="1"/>
  <line x1="70" y1="205" x2="810" y2="205" stroke="#21262D" stroke-width="1"/>
  <line x1="70" y1="250" x2="810" y2="250" stroke="#21262D" stroke-width="1"/>
  <line x1="70" y1="295" x2="810" y2="295" stroke="#21262D" stroke-width="1"/>
  <line x1="70" y1="340" x2="810" y2="340" stroke="#30363D" stroke-width="1"/>

  <!-- Vertical grid -->
  <line x1="70"  y1="70" x2="70"  y2="340" stroke="#30363D" stroke-width="1"/>
  <line x1="101" y1="70" x2="101" y2="340" stroke="#21262D" stroke-width="0.5"/>
  <line x1="132" y1="70" x2="132" y2="340" stroke="#21262D" stroke-width="0.5"/>
  <line x1="163" y1="70" x2="163" y2="340" stroke="#21262D" stroke-width="0.5"/>
  <line x1="194" y1="70" x2="194" y2="340" stroke="#21262D" stroke-width="0.5"/>
  <line x1="225" y1="70" x2="225" y2="340" stroke="#21262D" stroke-width="0.5"/>
  <line x1="256" y1="70" x2="256" y2="340" stroke="#21262D" stroke-width="0.5"/>
  <line x1="287" y1="70" x2="287" y2="340" stroke="#21262D" stroke-width="0.5"/>
  <line x1="318" y1="70" x2="318" y2="340" stroke="#21262D" stroke-width="0.5"/>
  <line x1="349" y1="70" x2="349" y2="340" stroke="#21262D" stroke-width="0.5"/>
  <line x1="380" y1="70" x2="380" y2="340" stroke="#21262D" stroke-width="0.5"/>
  <line x1="411" y1="70" x2="411" y2="340" stroke="#21262D" stroke-width="0.5"/>
  <line x1="442" y1="70" x2="442" y2="340" stroke="#21262D" stroke-width="0.5"/>
  <line x1="473" y1="70" x2="473" y2="340" stroke="#21262D" stroke-width="0.5"/>
  <line x1="504" y1="70" x2="504" y2="340" stroke="#21262D" stroke-width="0.5"/>
  <line x1="535" y1="70" x2="535" y2="340" stroke="#21262D" stroke-width="0.5"/>
  <line x1="566" y1="70" x2="566" y2="340" stroke="#21262D" stroke-width="0.5"/>
  <line x1="597" y1="70" x2="597" y2="340" stroke="#21262D" stroke-width="0.5"/>
  <line x1="628" y1="70" x2="628" y2="340" stroke="#21262D" stroke-width="0.5"/>
  <line x1="659" y1="70" x2="659" y2="340" stroke="#21262D" stroke-width="0.5"/>
  <line x1="690" y1="70" x2="690" y2="340" stroke="#21262D" stroke-width="0.5"/>
  <line x1="721" y1="70" x2="721" y2="340" stroke="#21262D" stroke-width="0.5"/>
  <line x1="752" y1="70" x2="752" y2="340" stroke="#21262D" stroke-width="0.5"/>
  <line x1="783" y1="70" x2="783" y2="340" stroke="#21262D" stroke-width="0.5"/>
  <line x1="810" y1="70" x2="810" y2="340" stroke="#30363D" stroke-width="1"/>

  <!-- PV Power curve (yellow/orange) - sine arch from 6:00 to 18:00 -->
  <!-- Each hour = 31.25px, starts at x=70 for 0:00 -->
  <!-- 6:00 = x=257.5, 12:00 = x=445, 18:00 = x=632.5 -->
  <!-- Max power 380W maps to y=80 (top), 0W = y=340 -->
  <polyline 
    fill="none" 
    stroke="#F59E0B" 
    stroke-width="2.5"
    stroke-linejoin="round"
    points="
      70,340
      101,340
      132,340
      163,340
      194,340
      225,340
      256,340
      272,335
      287,320
      303,300
      318,272
      334,240
      349,208
      365,178
      380,155
      396,138
      411,128
      427,123
      442,125
      458,132
      473,145
      489,163
      504,185
      520,210
      535,238
      551,266
      566,292
      582,313
      597,329
      613,338
      628,340
      659,340
      690,340
      721,340
      752,340
      783,340
      810,340
    "
  />
  <!-- PV area fill -->
  <polygon 
    fill="#F59E0B18"
    points="
      70,340
      101,340
      132,340
      163,340
      194,340
      225,340
      256,340
      272,335
      287,320
      303,300
      318,272
      334,240
      349,208
      365,178
      380,155
      396,138
      411,128
      427,123
      442,125
      458,132
      473,145
      489,163
      504,185
      520,210
      535,238
      551,266
      566,292
      582,313
      597,329
      613,338
      628,340
      659,340
      690,340
      721,340
      752,340
      783,340
      810,340
    "
  />

  <!-- SoC curve (green) -->
  <!-- SoC 30%=start → charges during day → max ~85% at 17:00 → stays high at night -->
  <!-- SoC: 30% = y=340 - 0.3*270 = 259, 85% = 340-0.85*270=111, 90%=97 -->
  <polyline
    fill="none"
    stroke="#3FB950"
    stroke-width="2.5"
    stroke-linejoin="round"
    stroke-dasharray="6,3"
    points="
      70,259
      101,259
      132,259
      163,259
      194,259
      225,259
      256,259
      272,255
      287,244
      303,228
      318,208
      334,185
      349,162
      365,140
      380,122
      396,108
      411,100
      427,97
      442,99
      458,104
      473,112
      489,122
      504,133
      520,137
      535,140
      551,143
      566,146
      582,148
      597,150
      613,150
      628,150
      659,154
      690,158
      721,162
      752,166
      783,170
      810,174
    "
  />
  <!-- SoC area -->
  <polygon
    fill="#3FB95010"
    points="
      70,340 70,259
      101,259
      132,259
      163,259
      194,259
      225,259
      256,259
      272,255
      287,244
      303,228
      318,208
      334,185
      349,162
      365,140
      380,122
      396,108
      411,100
      427,97
      442,99
      458,104
      473,112
      489,122
      504,133
      520,137
      535,140
      551,143
      566,146
      582,148
      597,150
      613,150
      628,150
      659,154
      690,158
      721,162
      752,166
      783,170
      810,174
      810,340
    "
  />

  <!-- Axes -->
  <line x1="70" y1="340" x2="810" y2="340" stroke="#8B949E" stroke-width="1.5"/>
  <line x1="70" y1="70"  x2="70"  y2="340" stroke="#8B949E" stroke-width="1.5"/>

  <!-- X-axis labels (hours) -->
  <text x="70"  y="358" fill="#8B949E" font-size="10" text-anchor="middle">0:00</text>
  <text x="163" y="358" fill="#8B949E" font-size="10" text-anchor="middle">3:00</text>
  <text x="256" y="358" fill="#8B949E" font-size="10" text-anchor="middle">6:00</text>
  <text x="349" y="358" fill="#8B949E" font-size="10" text-anchor="middle">9:00</text>
  <text x="442" y="358" fill="#8B949E" font-size="10" text-anchor="middle">12:00</text>
  <text x="535" y="358" fill="#8B949E" font-size="10" text-anchor="middle">15:00</text>
  <text x="628" y="358" fill="#8B949E" font-size="10" text-anchor="middle">18:00</text>
  <text x="721" y="358" fill="#8B949E" font-size="10" text-anchor="middle">21:00</text>
  <text x="810" y="358" fill="#8B949E" font-size="10" text-anchor="middle">24:00</text>
  <text x="440" y="375" fill="#8B949E" font-size="10" text-anchor="middle">Time of Day</text>

  <!-- Left Y-axis labels (PV Power) -->
  <text x="62" y="344" fill="#F59E0B" font-size="10" text-anchor="end">0 W</text>
  <text x="62" y="299" fill="#F59E0B" font-size="10" text-anchor="end">100</text>
  <text x="62" y="254" fill="#F59E0B" font-size="10" text-anchor="end">200</text>
  <text x="62" y="209" fill="#F59E0B" font-size="10" text-anchor="end">300</text>
  <text x="62" y="164" fill="#F59E0B" font-size="10" text-anchor="end">350</text>
  <text x="62" y="119" fill="#F59E0B" font-size="10" text-anchor="end">380</text>
  <text x="30" y="210" fill="#F59E0B" font-size="11" text-anchor="middle" transform="rotate(-90,30,210)">PV Power [W]</text>

  <!-- Right Y-axis (SoC %) -->
  <line x1="810" y1="70" x2="810" y2="340" stroke="#8B949E" stroke-width="1"/>
  <text x="818" y="344" fill="#3FB950" font-size="10">0%</text>
  <text x="818" y="277" fill="#3FB950" font-size="10">25%</text>
  <text x="818" y="210" fill="#3FB950" font-size="10">50%</text>
  <text x="818" y="143" fill="#3FB950" font-size="10">75%</text>
  <text x="818" y="76"  fill="#3FB950" font-size="10">100%</text>
  <text x="850" y="210" fill="#3FB950" font-size="11" text-anchor="middle" transform="rotate(90,850,210)">Battery SoC [%]</text>

  <!-- Annotations -->
  <!-- Peak PV annotation -->
  <circle cx="427" cy="123" r="4" fill="#F59E0B"/>
  <line x1="427" y1="119" x2="427" y2="90" stroke="#F59E0B" stroke-width="1" stroke-dasharray="3,2"/>
  <text x="427" y="86" fill="#F59E0B" font-size="10" text-anchor="middle">Peak: 378W</text>
  <text x="427" y="97" fill="#F59E0B" font-size="9" text-anchor="middle">12:30</text>

  <!-- Peak SoC annotation -->
  <circle cx="427" cy="97" r="4" fill="#3FB950"/>
  <rect x="460" y="82" width="90" height="28" fill="#0D1117" rx="3" stroke="#3FB95040"/>
  <text x="505" y="95" fill="#3FB950" font-size="10" text-anchor="middle">SoC peak: 87%</text>
  <text x="505" y="106" fill="#3FB950" font-size="9" text-anchor="middle">Charged: +5.7 kWh</text>

  <!-- Night discharge arrow -->
  <text x="720" y="148" fill="#3FB950" font-size="9" text-anchor="middle">Slow discharge</text>
  <text x="720" y="159" fill="#8B949E" font-size="9" text-anchor="middle">standby load</text>

  <!-- Sunrise/Sunset markers -->
  <line x1="256" y1="75" x2="256" y2="340" stroke="#F59E0B30" stroke-width="1" stroke-dasharray="4,3"/>
  <text x="256" y="73" fill="#F59E0B80" font-size="9" text-anchor="middle">Sunrise</text>
  <line x1="628" y1="75" x2="628" y2="340" stroke="#F59E0B30" stroke-width="1" stroke-dasharray="4,3"/>
  <text x="628" y="73" fill="#F59E0B80" font-size="9" text-anchor="middle">Sunset</text>

  <!-- Legend -->
  <rect x="200" y="385" width="460" height="28" fill="#161B22" rx="4" stroke="#30363D"/>
  <line x1="220" y1="399" x2="250" y2="399" stroke="#F59E0B" stroke-width="2.5"/>
  <circle cx="235" cy="399" r="3" fill="#F59E0B"/>
  <text x="256" y="403" fill="#E6EDF3" font-size="11">PV Output Power</text>
  <line x1="370" y1="399" x2="400" y2="399" stroke="#3FB950" stroke-width="2.5" stroke-dasharray="6,3"/>
  <circle cx="385" cy="399" r="3" fill="#3FB950"/>
  <text x="406" y="403" fill="#E6EDF3" font-size="11">Battery State of Charge (SoC)</text>

  <!-- Stats bar at bottom -->
  <rect x="70" y="385" width="120" height="28" fill="#161B22" rx="4" stroke="#30363D"/>
  <text x="130" y="396" fill="#8B949E" font-size="9" text-anchor="middle">Daily Yield</text>
  <text x="130" y="409" fill="#F59E0B" font-size="11" font-weight="bold" text-anchor="middle">2.34 kWh</text>

  <rect x="670" y="385" width="140" height="28" fill="#161B22" rx="4" stroke="#30363D"/>
  <text x="740" y="396" fill="#8B949E" font-size="9" text-anchor="middle">Self-consumption rate</text>
  <text x="740" y="409" fill="#3FB950" font-size="11" font-weight="bold" text-anchor="middle">68.4%</text>

</svg>